<?xml version="1.0" encoding="utf-8"?><svg xml:space="preserve" viewBox="0 0 100 100" y="0" x="0" xmlns="http://www.w3.org/2000/svg" id="圖層_1" version="1.1" width="200px" height="200px" xmlns:xlink="http://www.w3.org/1999/xlink" style="width:100%;height:100%;background-size:initial;background-repeat-y:initial;background-repeat-x:initial;background-position-y:initial;background-position-x:initial;background-origin:initial;background-color:initial;background-clip:initial;background-attachment:initial;animation-play-state:paused" ><g class="ldl-scale" style="transform-origin:50% 50%;transform:rotate(0deg) scale(0.8, 0.8);animation-play-state:paused" ><path fill="#849b87" d="M93.536 31.056l-11.18 11.18-10 10-18.894 18.893c-.977.976-2.256 1.464-3.536 1.464s-2.559-.488-3.536-1.464L24.144 48.883a5 5 0 1 1 7.071-7.071l18.711 18.711 22.429-22.429 4.705-4.705 9.404-9.404a5.001 5.001 0 0 1 7.072 7.071z" style="fill:rgb(21, 128, 61);animation-play-state:paused" ></path>
<path fill="#333" d="M72.355 74.428a4.255 4.255 0 0 1-4.25 4.25H19.25a4.255 4.255 0 0 1-4.25-4.25V25.572a4.255 4.255 0 0 1 4.25-4.25h48.855a4.255 4.255 0 0 1 4.25 4.25v4.036l9.066-9.066c-2.039-5.379-7.231-9.22-13.316-9.22H19.25C11.393 11.322 5 17.715 5 25.572v48.855c0 7.857 6.393 14.25 14.25 14.25h48.855c7.857 0 14.25-6.393 14.25-14.25V50.722l-10 10v13.706z" style="fill:rgb(0, 81, 255);animation-play-state:paused" ></path>
<metadata xmlns:d="https://loading.io/stock/" style="animation-play-state:paused" ><d:name style="animation-play-state:paused" >check</d:name>


<d:tags style="animation-play-state:paused" >square,ok,select,choice,circle,option,enable,on,check,form</d:tags>


<d:license style="animation-play-state:paused" >by</d:license>


<d:slug style="animation-play-state:paused" >dx3a4o</d:slug></metadata></g><!-- generated by https://loading.io/ --></svg>